<?xml version="1.0" encoding="utf-8"?>
<svg width="13" height="18.473" viewBox="0 0 13 18.473" fill="none" xmlns="http://www.w3.org/2000/svg">
  <defs>
    <clipPath id="clip_path_1">
      <rect width="13" height="18" />
    </clipPath>
  </defs>
  <g id="Dollar" transform="translate(0 0.236)">
    <path d="M10.7031 4.46289L10.7031 6.38672Q9.58008 5.84961 8.58398 5.58594Q7.58789 5.32227 6.66016 5.32227Q5.04883 5.32227 4.1748 5.94727Q3.30078 6.57227 3.30078 7.72461Q3.30078 8.69141 3.88184 9.18457Q4.46289 9.67773 6.08398 9.98047L7.27539 10.2246Q9.48242 10.6445 10.5322 11.7041Q11.582 12.7637 11.582 14.541Q11.582 16.6602 10.1611 17.7539Q8.74023 18.8477 5.99609 18.8477Q4.96094 18.8477 3.79395 18.6133Q2.62695 18.3789 1.37695 17.9199L1.37695 15.8887Q2.57812 16.5625 3.73047 16.9043Q4.88281 17.2461 5.99609 17.2461Q7.68555 17.2461 8.60352 16.582Q9.52148 15.918 9.52148 14.6875Q9.52148 13.6133 8.8623 13.0078Q8.20312 12.4023 6.69922 12.0996L5.49805 11.8652Q3.29102 11.4258 2.30469 10.4883Q1.31836 9.55078 1.31836 7.88086Q1.31836 5.94727 2.68066 4.83398Q4.04297 3.7207 6.43555 3.7207Q7.46094 3.7207 8.52539 3.90625Q9.58984 4.0918 10.7031 4.46289Z" transform="translate(0 -2.641)" fill="#FFFFFF" clip-path="url(#clip_path_1)" />
    <line id="Line" x1="0" y1="0" x2="0" y2="17.473" fill="none" stroke-width="1" stroke="#FFFFFF" stroke-linecap="square" transform="translate(5.816 0.264)" />
  </g>
</svg>