<?xml version="1.0" encoding="utf-8"?>
<svg width="18" height="22" viewBox="0 0 18 22" fill="none" xmlns="http://www.w3.org/2000/svg">
  <defs>
    <clipPath id="clip_path_1">
      <rect width="18" height="22" />
    </clipPath>
  </defs>
  <g id="Group">
    <path d="M11.9043 16.4844L11.9043 12.5684L8.68164 12.5684L8.68164 10.9473L13.8574 10.9473L13.8574 17.207Q12.7148 18.0176 11.3379 18.4326Q9.96094 18.8477 8.39844 18.8477Q4.98047 18.8477 3.05176 16.8506Q1.12305 14.8535 1.12305 11.2891Q1.12305 7.71484 3.05176 5.71777Q4.98047 3.7207 8.39844 3.7207Q9.82422 3.7207 11.1084 4.07227Q12.3926 4.42383 13.4766 5.10742L13.4766 7.20703Q12.3828 6.2793 11.1523 5.81055Q9.92188 5.3418 8.56445 5.3418Q5.88867 5.3418 4.5459 6.83594Q3.20312 8.33008 3.20312 11.2891Q3.20312 14.2383 4.5459 15.7324Q5.88867 17.2266 8.56445 17.2266Q9.60938 17.2266 10.4297 17.0459Q11.25 16.8652 11.9043 16.4844Z" transform="translate(0 -0.641)" fill="#FFFFFF" clip-path="url(#clip_path_1)" />
    <line id="Line" x1="0" y1="0" x2="0" y2="17" fill="none" stroke-width="1" stroke="#FFFFFF" stroke-linecap="square" transform="translate(8 2)" />
  </g>
</svg>