<?xml version="1.0" encoding="utf-8"?>
<svg width="390" height="107" viewBox="0 0 390 107" fill="none" xmlns="http://www.w3.org/2000/svg">
  <g id="Group">
    <path id="Rectangle" d="M0 0L368.676 0L379.374 11.3666Q379.5 11.5 379.623 11.6353L390 23.0036L390 85.0938Q390 85.6315 389.974 86.1686Q389.947 86.7058 389.895 87.2409Q389.842 87.7761 389.763 88.3081Q389.684 88.84 389.579 89.3674Q389.474 89.8949 389.343 90.4165Q389.213 90.9382 389.057 91.4528Q388.901 91.9674 388.719 92.4737Q388.538 92.9801 388.332 93.4769Q388.127 93.9737 387.897 94.4599Q387.667 94.946 387.413 95.4203Q387.16 95.8946 386.883 96.3558Q386.607 96.8171 386.308 97.2642Q386.009 97.7113 385.689 98.1433Q385.369 98.5752 385.027 98.9909Q384.686 99.4066 384.325 99.8051Q383.964 100.204 383.584 100.584Q383.203 100.964 382.805 101.325Q382.407 101.686 381.991 102.028Q381.575 102.369 381.143 102.689Q380.711 103.009 380.264 103.308Q379.817 103.607 379.356 103.883Q378.895 104.16 378.42 104.413Q377.946 104.667 377.46 104.897Q376.974 105.127 376.477 105.332Q375.98 105.538 375.474 105.719Q374.967 105.901 374.453 106.057Q373.938 106.213 373.417 106.344Q372.895 106.474 372.367 106.579Q371.84 106.684 371.308 106.763Q370.776 106.842 370.241 106.895Q369.706 106.947 369.169 106.974Q368.632 107 368.094 107L0 107L0 0Z" fill="#6784AE" fill-rule="evenodd" />
    <g id="Group" transform="translate(107 0)">
      <g id="Group">
        <path id="Rectangle" d="M15.0002 0L43.0002 0L28.0001 107L0 107L15.0002 0Z" fill="#D27563" fill-rule="evenodd" />
      </g>
      <g id="Group" transform="translate(20 13)">
        <path id="Rectangle Subtract" d="M11 0L3.83724 0L1.86103 13.9052L9.02538 13.8941L11 0ZM8.01731 20.9872L0.852967 20.9983L0 27L7.16277 27L8.01731 20.9872Z" fill="#FFFFFF" fill-rule="evenodd" />
      </g>
    </g>
    <g id="Group" transform="translate(229.001 0)">
      <g id="Group">
        <path id="Rectangle" d="M15.0002 0L43.0002 0L28.0001 107L0 107L15.0002 0Z" fill="#D27563" fill-rule="evenodd" />
      </g>
      <g id="Group" transform="translate(20 13)">
        <path id="Rectangle Subtract" d="M11 0L3.83724 0L1.86103 13.9052L9.02538 13.8941L11 0ZM8.01731 20.9872L0.852967 20.9983L0 27L7.16277 27L8.01731 20.9872Z" fill="#FFFFFF" fill-rule="evenodd" />
      </g>
    </g>
    <g id="Group" transform="translate(0 0)">
      <g id="Group">
        <path id="Rectangle" d="M0 0L28 0L28.0001 107L0 107L0 0Z" fill="#D27563" fill-rule="evenodd" />
      </g>
      <path id="Group Subtract" d="M7.16277 0L0 0L0.000126839 13.9188L7.1629 13.9187L7.16277 0ZM7.16296 21.0815L0.000191689 21.0815L0.000246048 27L7.16302 27L7.16296 21.0815Z" fill="#FFFFFF" fill-rule="evenodd" transform="translate(10.418 13)" />
    </g>
  </g>
</svg>