<?xml version="1.0" encoding="utf-8"?>
<svg width="8.348" height="8.842" viewBox="0 0 8.348 8.842" fill="none" xmlns="http://www.w3.org/2000/svg">
  <g id="logo1">
    <g fill="#06133E" fill-rule="evenodd" transform="matrix(0.934 0.358 -0.358 0.934 3.075 0)">
      <path id="Oval" d="M3.63104 3.76589C3.63104 3.76589 4.82095 5 4.82095 5C5.14934 4.65941 5.39168 4.24008 5.52649 3.77916C5.6613 3.31823 5.68443 2.82994 5.59383 2.35753C5.50323 1.88512 5.30169 1.44317 5.00706 1.07084C4.71244 0.698505 4.33383 0.407278 3.90476 0.222952C3.4757 0.0386268 3.00942 -0.0331071 2.54724 0.0141043C2.08506 0.0613158 1.64124 0.226015 1.25509 0.493615C0.868941 0.761215 0.552384 1.12345 0.333459 1.54824C0.114535 1.97304 2.38419e-07 2.44727 0 2.92893C0 2.92893 1.68279 2.92893 1.68279 2.92893C1.68279 2.73428 1.72908 2.54264 1.81755 2.37097C1.90602 2.1993 2.03395 2.05291 2.19 1.94477C2.34605 1.83663 2.52541 1.77007 2.71218 1.75099C2.89896 1.73191 3.08739 1.7609 3.26079 1.83539C3.43418 1.90988 3.58719 2.02757 3.70625 2.17804C3.82531 2.32851 3.90676 2.50711 3.94337 2.69802C3.97999 2.88893 3.97064 3.08626 3.91616 3.27253C3.86168 3.4588 3.76375 3.62826 3.63104 3.76589Z" />
      <path d="M4.61257 4.78388L3.63104 3.76589C3.76375 3.62826 3.86168 3.4588 3.91616 3.27253C3.97064 3.08626 3.97999 2.88893 3.94337 2.69802C3.90676 2.50711 3.82531 2.32851 3.70625 2.17804C3.58719 2.02757 3.43418 1.90988 3.26079 1.83539C3.08739 1.7609 2.89896 1.73191 2.71218 1.75099C2.52541 1.77007 2.34605 1.83663 2.19 1.94477C2.03395 2.05291 1.90602 2.1993 1.81755 2.37097C1.72908 2.54264 1.68279 2.73428 1.68279 2.92893L1.38279 2.92893L0.3 2.92893L0 2.92893C0 2.82848 0.00498152 2.72836 0.014852 2.62893C0.0523121 2.25162 0.160191 1.88445 0.333459 1.54824C0.552384 1.12345 0.868941 0.761215 1.25509 0.493615C1.64124 0.226015 2.08506 0.0613158 2.54724 0.0141043C3.00942 -0.0331071 3.4757 0.0386268 3.90476 0.222952C4.33383 0.407278 4.71244 0.698505 5.00706 1.07084C5.30169 1.44317 5.50323 1.88512 5.59383 2.35753C5.68443 2.82994 5.6613 3.31823 5.52649 3.77916C5.42032 4.14215 5.24747 4.47934 5.01842 4.77259C4.95662 4.85171 4.89073 4.92763 4.82095 5L4.61257 4.78388ZM4.80833 4.5547Q5.09898 4.17214 5.23855 3.69494Q5.42355 3.06242 5.2992 2.41403Q5.17502 1.76656 4.77181 1.25699Q4.37015 0.749391 3.78635 0.498593Q3.2043 0.248547 2.57773 0.312551Q1.95062 0.37661 1.42597 0.740193Q0.899305 1.10517 0.600128 1.68568Q0.369062 2.13403 0.315892 2.62893L1.41193 2.62893Q1.45277 2.4239 1.55088 2.23354Q1.71992 1.90554 2.01912 1.69819Q2.32033 1.48946 2.6817 1.45254Q3.0436 1.41558 3.3792 1.55975Q3.71305 1.70317 3.94151 1.99188Q4.16841 2.27863 4.238 2.64151Q4.30742 3.00347 4.2041 3.35674Q4.14251 3.56732 4.02813 3.74552L4.80833 4.5547Z" fill="#FFFFFF" fill-rule="evenodd" />
    </g>
    <g fill="#06133E" fill-rule="evenodd" transform="translate(0 1.842)">
      <path id="Oval" d="M0 3.5C0 1.567 1.567 0 3.5 0C5.433 0 7 1.567 7 3.5C7 5.433 5.433 7 3.5 7C1.567 7 0 5.433 0 3.5Z" />
      <path d="M3.5 0C1.567 0 0 1.567 0 3.5C0 5.433 1.567 7 3.5 7C5.433 7 7 5.433 7 3.5C7 1.567 5.433 0 3.5 0ZM3.5 6.7Q0.300003 6.7 0.3 3.5Q0.3 0.300003 3.5 0.3Q6.7 0.300001 6.7 3.5Q6.7 6.7 3.5 6.7Z" fill="#FFFFFF" fill-rule="evenodd" />
    </g>
    <path id="Oval" d="M0 0.5C0 0.223857 0.223858 0 0.5 0C0.776142 0 1 0.223857 1 0.5C1 0.776142 0.776142 1 0.5 1C0.223858 1 0 0.776142 0 0.5Z" fill="#FFFFFF" fill-rule="evenodd" transform="translate(3 5.842)" />
    <path id="Vector" d="M0 2.32211L1.5 0L3 2.32211" fill="none" stroke-width="0.3" stroke="#FFFFFF" transform="translate(2 4.181)" />
  </g>
</svg>