<?xml version="1.0" encoding="utf-8"?>
<svg width="57" height="57" viewBox="0 0 57 57" fill="none" xmlns="http://www.w3.org/2000/svg">
  <g fill="#1D2C5A" fill-rule="evenodd">
    <path id="Oval" d="M0 28.5C0 12.7599 12.7599 0 28.5 0C44.2401 0 57 12.7599 57 28.5C57 44.2401 44.2401 57 28.5 57C12.7599 57 0 44.2401 0 28.5Z" />
    <path d="M28.5 0C12.7599 0 0 12.7599 0 28.5C0 44.2401 12.7599 57 28.5 57C44.2401 57 57 44.2401 57 28.5C57 12.7599 44.2401 0 28.5 0ZM11.1759 45.8241Q3.99997 38.6482 4 28.5Q4 18.3518 11.1759 11.1759Q18.3518 4.00003 28.5 4Q38.6482 3.99997 45.8241 11.1759Q53 18.3518 53 28.5Q53 38.6482 45.8241 45.8241Q38.6482 53 28.5 53Q18.3518 53 11.1759 45.8241Z" fill="#FFFFFF" fill-rule="evenodd" />
  </g>
</svg>