<?xml version="1.0" encoding="utf-8"?>
<svg width="102" height="31" viewBox="0 0 102 31" fill="none" xmlns="http://www.w3.org/2000/svg">
  <path id="Rectangle" d="M0 0L96.7397 0L99.3694 1.22933Q99.3711 1.23016 99.3729 1.23099L102 2.46168L102 27.0996Q102 27.2912 101.981 27.4819Q101.962 27.6726 101.925 27.8605Q101.888 28.0485 101.832 28.2318Q101.776 28.4152 101.703 28.5922Q101.63 28.7693 101.539 28.9382Q101.449 29.1072 101.343 29.2665Q101.236 29.4259 101.115 29.574Q100.993 29.7221 100.858 29.8576Q100.722 29.9931 100.574 30.1147Q100.426 30.2362 100.267 30.3427Q100.107 30.4491 99.9382 30.5394Q99.7692 30.6298 99.5922 30.7031Q99.4152 30.7764 99.2318 30.8321Q99.0485 30.8877 98.8605 30.9251Q98.6726 30.9624 98.4819 30.9812Q98.2912 31 98.0996 31L5.25145 31L2.63001 29.7704Q2.62887 29.7698 2.62772 29.7693L0 28.5351L0 0Z" fill="#06133E" fill-rule="evenodd" />
</svg>